<?xml version="1.0" encoding="UTF-8"?>
<svg width="72px" height="72px" viewBox="0 0 72 72" version="1.1" xmlns="http://www.w3.org/2000/svg" xmlns:xlink="http://www.w3.org/1999/xlink">
    <title>Group 32 Copy</title>
    <defs>
        <circle id="path-1" cx="36" cy="36" r="36"></circle>
        <polygon id="path-3" points="-9.89214994e-16 0 60.8571429 0 60.8571429 16.8571429 -9.89214994e-16 16.8571429"></polygon>
    </defs>
    <g id="UI-Designs---v2" stroke="none" stroke-width="1" fill="none" fill-rule="evenodd">
        <g id="Bewoner-detail---Muziek-overview-Copy-2" transform="translate(-68.000000, -43.000000)">
            <g id="Group-32-Copy" transform="translate(68.000000, 43.000000)">
                <mask id="mask-2" fill="white">
                    <use xlink:href="#path-1"></use>
                </mask>
                <use id="Mask" fill="#FFFFFF" xlink:href="#path-1"></use>
                <g mask="url(#mask-2)">
                    <g transform="translate(35.500000, 43.142857) rotate(-1.500000) translate(-35.500000, -43.142857) translate(5.071429, 13.428571)">
                        <g id="Group-3" stroke="none" stroke-width="1" fill="none" fill-rule="evenodd" transform="translate(0.000000, 42.571429)">
                            <mask id="mask-4" fill="white">
                                <use xlink:href="#path-3"></use>
                            </mask>
                            <g id="Clip-2"></g>
                            <path d="M21.6523371,0 C16.5557848,1.60510435 11.4586756,3.21076295 6.36212323,4.81642154 C2.08251169,6.16490873 -0.77538895,10.9707995 0.186897157,15.2296469 C20.4294319,15.7445439 40.6719666,16.259441 60.2033675,16.8574754 C61.8372491,14.0906657 60.1710685,10.5678607 57.8427593,8.34864876 C55.5138933,6.12832831 52.1169343,5.60179201 49.1270534,4.40073499 C45.7835547,3.05834454 43.3009902,2.23362242 40.5995724,0.401276087 C34.288468,1.39670682 27.7974918,1.24872241 21.6523371,0" id="Fill-1" fill="#AFC4C4" mask="url(#mask-4)"></path>
                        </g>
                        <path d="M37.3726338,54.8099761 C33.8467823,57.574423 28.4279305,57.5299248 24.9242193,54.7321043 C21.4260433,51.9342838 20.1529729,46.6668166 21.9629469,42.556301 C22.7710698,40.726315 23.3356489,38.7962082 23.656684,36.8216033 C24.0109297,34.652319 24.0718157,32.4329743 23.8282717,30.2525655 C23.7673858,29.7185878 23.6898945,29.1957347 23.595798,28.6673193 C28.3338339,27.0431372 33.581098,26.6982766 38.5626778,27.7217338 C38.385555,28.5115758 38.2527129,29.3181046 38.1641515,30.1357579 C38.0589848,31.1147169 38.0202392,32.1159251 38.0368444,33.1226955 C38.0977304,36.3710596 38.8283621,39.6806087 40.2453448,42.6675463 C42.1715557,46.7280015 40.8984853,52.0455292 37.3726338,54.8099761" id="Fill-4" stroke="none" fill="#EFAC8E" fill-rule="evenodd"></path>
                        <path d="M39.1428571,30 C39.0812772,31.0958421 38.7677794,32.1408463 38.2583454,33.1011203 C37.2730666,34.976479 35.5432304,36.5072688 33.4998963,37.3884615 C30.4097035,38.7271965 26.6701223,38.5577364 23.7198839,36.9478652 C23.7198839,36.9196218 23.7142857,36.8857298 23.7142857,36.8574864 C24.0725689,34.6545048 24.1341489,32.4006851 23.8878292,30.1864061 C28.7134564,30.5253264 33.5670744,30.4857857 38.3871035,30.0677841 C38.6390214,30.0451894 38.8909392,30.0225947 39.1428571,30" id="Fill-6" stroke="none" fill="#C99177" fill-rule="evenodd"></path>
                        <path d="M18.5714286,18 C18.5714286,8.05901538 24.3275155,0 31.4285714,0 C38.5296273,0 44.2857143,8.05901538 44.2857143,18 C44.2857143,27.9409846 38.5296273,36 31.4285714,36 C24.3275155,36 18.5714286,27.9409846 18.5714286,18" id="Fill-8" stroke="none" fill="#EFAC8E" fill-rule="evenodd"></path>
                        <path d="M24.8571429,16.7142857 C24.8571429,16.004 25.3051429,15.4285714 25.8571429,15.4285714 C26.4097143,15.4285714 26.8571429,16.004 26.8571429,16.7142857 C26.8571429,17.4245714 26.4097143,18 25.8571429,18 C25.3051429,18 24.8571429,17.4245714 24.8571429,16.7142857" id="Fill-10" stroke="none" fill="#541900" fill-rule="evenodd"></path>
                        <path d="M35.4285714,16.7142857 C35.4285714,16.004 35.8765714,15.4285714 36.4285714,15.4285714 C36.9811429,15.4285714 37.4285714,16.004 37.4285714,16.7142857 C37.4285714,17.4245714 36.9811429,18 36.4285714,18 C35.8765714,18 35.4285714,17.4245714 35.4285714,16.7142857" id="Fill-12" stroke="none" fill="#541900" fill-rule="evenodd"></path>
                        <path d="M38.5383462,11.8831284 C38.422915,11.8278775 38.2944696,11.8015676 38.1648925,11.7905174 C36.5697927,11.6600201 33.8130256,11.7079042 33.3297992,11.8520827 C33.0502748,11.9352221 32.8652455,12.3130329 32.8573237,12.5861301 C32.8499678,12.8587011 33.0678158,13.122853 33.3535645,13.1870492 C34.5548404,13.4548844 35.8545723,12.9686767 37.0869694,13.0533947 C38.2661777,13.1344293 39.1488863,13.1959946 40.1583429,13.7037765 C40.2364287,13.7432414 40.319607,13.6637854 40.2715107,13.5943271 C39.7741383,12.8818539 39.2128261,12.2046359 38.5383462,11.8831284" id="Fill-14" stroke="none" fill="#B8B8B8" fill-rule="evenodd"></path>
                        <path d="M23.7474116,11.8831284 C23.8628419,11.8278775 23.9912863,11.8015676 24.1208624,11.7905174 C25.71595,11.6600201 28.472696,11.7079042 28.9559187,11.8520827 C29.235441,11.9352221 29.4204689,12.3130329 29.4283905,12.5861301 C29.4357464,12.8587011 29.2179001,13.122853 28.9321536,13.1870492 C27.7308869,13.4548844 26.4311649,12.9686767 25.1987773,13.0533947 C24.0190122,13.1344293 23.1363103,13.1959946 22.1274273,13.7037765 C22.0487763,13.7432414 21.9661645,13.6637854 22.0142604,13.5943271 C22.511629,12.8818539 23.0729368,12.2046359 23.7474116,11.8831284" id="Fill-16" stroke="none" fill="#B8B8B8" fill-rule="evenodd"></path>
                        <path d="M29.7142857,22.2330213 C30.8209843,23.1305849 32.4342541,23.0661886 33.4285714,22" id="Stroke-18" stroke="#C77A5A" stroke-width="1" fill="none" stroke-linecap="round" stroke-linejoin="round"></path>
                        <path d="M26.5714286,27.1505601 C29.8509486,27.1857737 33.1304685,27.2209872 36.2857143,27.1428571 C35.0270253,29.5027149 33.1964549,30.8826457 31.3587359,30.8567857 C29.521017,30.8303756 27.7036438,29.3981747 26.5714286,27.1505601" id="Fill-20" stroke="none" fill="#FFFFFF" fill-rule="evenodd"></path>
                        <path d="M21.142707,8.31786178 L21.0524116,13.1713133 C21.0261231,14.5873463 19.6854079,15.7057382 18.2812574,15.3678149 C16.9662593,15.0511517 17.1445642,13.4057337 17.1582799,12.0870495 C17.1719957,10.7952201 17.1582799,10.0169894 17.7943481,8.96013987 C18.223537,8.24624889 19.0922015,7.90440925 19.8482825,7.52508473 C20.4449179,7.22520577 21.1547083,7.6615968 21.142707,8.31786178" id="Fill-22" stroke="none" fill="#EBEBEB" fill-rule="evenodd"></path>
                        <path d="M20.9842675,18.4205081 C20.4944761,16.3149644 19.0168377,14.8670532 17.6840982,15.1871944 C16.3519097,15.5073356 15.6687361,17.4735171 16.1585275,19.5796206 C16.6488698,21.6851643 18.1265082,23.1325158 19.4586967,22.8129343 C20.7914362,22.4927931 21.4740589,20.5260519 20.9842675,18.4205081" id="Fill-24" stroke="none" fill="#EFAC8E" fill-rule="evenodd"></path>
                        <path d="M42.0001501,8.31786178 L42.0904402,13.1713133 C42.1167272,14.5873463 43.4573634,15.7057382 44.8614313,15.3678149 C46.176352,15.0511517 45.9986291,13.4057337 45.9843427,12.0870495 C45.9706278,10.7952201 45.9843427,10.0169894 45.3488834,8.96013987 C44.9191484,8.24624889 44.050535,7.90440925 43.2944984,7.52508473 C42.6978981,7.22520577 41.9881496,7.6615968 42.0001501,8.31786178" id="Fill-26" stroke="none" fill="#EBEBEB" fill-rule="evenodd"></path>
                        <path d="M41.5870989,18.4205081 C42.0774412,16.3149644 43.5545287,14.8670532 44.8872682,15.1871944 C46.2200076,15.5073356 46.9026303,17.4735171 46.4128389,19.5796206 C45.9230475,21.6851643 44.4454091,23.1325158 43.1126696,22.8129343 C41.7804811,22.4927931 41.0973075,20.5260519 41.5870989,18.4205081" id="Fill-28" stroke="none" fill="#EFAC8E" fill-rule="evenodd"></path>
                        <path d="M24.2857143,27.6106317 C28.8569565,27.6448155 33.4287578,27.6795506 38,27.7142857 C36.4853846,25.4416169 33.7938533,24.6669687 31.4914591,25.4239736 C29.2801989,24.6802011 25.7500102,25.7448599 24.2857143,27.6106317" id="Fill-30" stroke="none" fill="#EBEBEB" fill-rule="evenodd"></path>
                    </g>
                </g>
            </g>
        </g>
    </g>
</svg>