<?xml version="1.0" encoding="UTF-8"?>
<svg width="157px" height="157px" viewBox="0 0 157 157" version="1.1" xmlns="http://www.w3.org/2000/svg" xmlns:xlink="http://www.w3.org/1999/xlink">
    <title>Group 35</title>
    <defs>
        <circle id="path-1" cx="78.5" cy="78.5" r="78.5"></circle>
        <polygon id="path-3" points="-2.43819928e-15 0 150 0 150 42 -2.43819928e-15 42"></polygon>
        <polygon id="path-5" points="9.73134616e-15 0 63 0 63 89 9.73134616e-15 89"></polygon>
    </defs>
    <g id="UI-Designs---v6" stroke="none" stroke-width="1" fill="none" fill-rule="evenodd">
        <g id="Group-35">
            <mask id="mask-2" fill="white">
                <use xlink:href="#path-1"></use>
            </mask>
            <use id="Mask" fill="#E2673B" xlink:href="#path-1"></use>
            <g mask="url(#mask-2)">
                <g transform="translate(4.000000, 13.000000)">
                    <g id="Group-3" stroke-width="1" fill="none" transform="translate(0.000000, 105.000000)">
                        <mask id="mask-4" fill="white">
                            <use xlink:href="#path-3"></use>
                        </mask>
                        <g id="Clip-2"></g>
                        <path d="M53.3682901,0 C40.8063998,3.9990794 28.2431369,7.9995397 15.6812466,12 C5.13293725,15.3597238 -1.9111647,27.3334868 0.460660743,37.9456847 C50.3540953,39.2271577 100.24753,40.5100115 148.388174,42 C152.415336,35.1065593 148.308565,26.3295742 142.56979,20.8004603 C136.829643,15.2685846 128.45688,13.9567319 121.087475,10.9643268 C112.84648,7.61979287 106.7275,5.56501726 100.069094,0.99976985 C84.5135975,3.48124281 68.5147564,3.11116226 53.3682901,0" id="Fill-1" fill="#AFC4C4" mask="url(#mask-4)"></path>
                    </g>
                    <path d="M91.7623443,134.970858 C83.1253576,141.762319 69.8491605,141.653 61.2650617,134.778182 C52.6931677,127.906098 49.5754989,114.96406 54.0085825,104.867056 C55.9884853,100.3713 57.3730611,95.6295752 58.1595978,90.7771649 C59.0261442,85.4492156 59.1766711,79.9969157 58.578632,74.6402701 C58.4308173,73.3284385 58.2396075,72.0425703 58.0090709,70.7457701 C69.6186239,66.7556157 82.4730746,65.9070247 94.6779545,68.422735 C94.2440032,70.3631525 93.9198958,72.3445648 93.7029202,74.3533069 C93.4439055,76.756965 93.3503348,79.2166492 93.3896616,81.6913648 C93.5401884,89.6716735 95.3302375,97.8022963 98.8004917,105.140354 C103.521068,115.11574 100.400687,128.17803 91.7623443,134.970858" id="Fill-4" fill="#EFAC8E"></path>
                    <path d="M96,75 C95.8483309,77.6451362 95.0761974,80.1675599 93.8214804,82.4854628 C91.394775,87.0135543 87.1342525,90.7085641 82.1015965,92.8342174 C74.490566,96.0656467 65.2801161,95.656605 58.0137881,91.770709 C58.0137881,91.7025354 58,91.6207271 58,91.5525535 C58.8824383,86.2350116 59.0341074,80.7947572 58.4274311,75.4499459 C70.3127721,76.2680292 82.2670537,76.1725862 94.1386067,75.1636167 C94.7590711,75.1090778 95.3795356,75.0545389 96,75" id="Fill-6" fill="#C99177"></path>
                    <g id="Group-10" stroke-width="1" fill="none" transform="translate(45.000000, 0.000000)">
                        <mask id="mask-6" fill="white">
                            <use xlink:href="#path-5"></use>
                        </mask>
                        <g id="Clip-9"></g>
                        <path d="M9.73134616e-15,44.4995892 C9.73134616e-15,19.9230393 14.102413,-0.000821546045 31.5,-0.000821546045 C48.897587,-0.000821546045 63,19.9230393 63,44.4995892 C63,69.0761392 48.897587,89 31.5,89 C14.102413,89 9.73134616e-15,69.0761392 9.73134616e-15,44.4995892" id="Fill-8" fill="#EFAC8E" mask="url(#mask-6)"></path>
                    </g>
                    <path d="M51.9996246,21.2232259 L51.7753149,33.3568548 C51.7081648,36.8969372 48.356377,39.6929169 44.8460007,38.8481087 C41.5585055,38.0564506 42.0042675,33.9429056 42.0385569,30.6461951 C42.074275,27.4166217 42.0385569,25.471045 43.6301561,22.8289211 C44.7031283,21.0441937 46.8733609,20.1895945 48.7635635,19.2412833 C50.2551519,18.4915858 52.0296279,19.5825634 51.9996246,21.2232259" id="Fill-11" fill="#EBEBEB"></path>
                    <path d="M51.5985564,46.0727329 C50.3604563,40.8868567 46.6266582,37.3207052 43.2577445,38.109201 C39.8902235,38.8976968 38.1632896,43.7403293 39.3999971,48.927584 C40.6408826,54.1134603 44.3746807,57.6782333 47.7422017,56.8911159 C51.1111154,56.1026201 52.8380493,51.2586092 51.5985564,46.0727329" id="Fill-13" fill="#EFAC8E"></path>
                    <path d="M103.000375,21.2232259 L103.226081,33.3568548 C103.291793,36.8969372 106.644531,39.6929169 110.154406,38.8481087 C113.441431,38.0564506 112.995733,33.9429056 112.961449,30.6461951 C112.925736,27.4166217 112.961449,25.471045 111.371505,22.8289211 C110.297258,21.0441937 108.127335,20.1895945 106.237403,19.2412833 C104.746027,18.4915858 102.970376,19.5825634 103.000375,21.2232259" id="Fill-15" fill="#EBEBEB"></path>
                    <path d="M102.400535,46.0727329 C103.641358,40.8868567 107.373573,37.3207052 110.742315,38.109201 C114.111057,38.8976968 115.836511,43.7403293 114.599866,48.927584 C113.360437,54.1134603 109.625436,57.6782333 106.258086,56.8911159 C102.890737,56.1026201 101.162498,51.2586092 102.400535,46.0727329" id="Fill-17" fill="#EFAC8E"></path>
                    <path d="M98.5865509,34.2789067 C98.3738671,34.0545845 98.1039222,33.8863428 97.8203438,33.7568235 C94.327421,32.1571924 88.0437047,30.0474953 86.8207728,30.0007615 C86.1145534,29.9727212 85.3606165,30.7244677 85.0988518,31.3693941 C84.8425405,32.0143205 85.1002152,32.8208123 85.6919125,33.2026942 C88.1718604,34.811672 91.5475344,34.7008462 94.2619798,35.8972314 C96.8591765,37.042877 98.8060515,37.9014436 100.641131,39.9283551 C100.781557,40.0859148 101.041958,39.9630717 100.994241,39.7587782 C100.496615,37.6584279 99.8285699,35.5901236 98.5865509,34.2789067" id="Fill-19" fill="#B8B8B8"></path>
                    <path d="M55.4143627,34.2788668 C55.6256684,34.054543 55.8955944,33.8876354 56.179153,33.7567799 C59.6745584,32.1571376 65.9551094,30.0474258 67.1793193,30.0006916 C67.8841261,29.9739864 68.6393736,30.7257382 68.8997568,31.3706691 C69.1587767,32.0156 68.8997568,32.8207621 68.3081008,33.2026467 C65.8269628,34.8116358 62.4528877,34.7021444 59.7386318,35.898538 C57.1402532,37.0441916 55.1962407,37.901429 53.3599259,39.9283546 C53.2181466,40.0859154 52.9591267,39.9630714 53.0054776,39.7587765 C53.5030685,37.6584115 54.1737937,35.5900928 55.4143627,34.2788668" id="Fill-21" fill="#B8B8B8"></path>
                    <path d="M77.7384579,58 C76.1821069,58 74.6084483,57.5542135 73.2837526,56.6469529 C72.9841983,56.4417081 72.9096425,56.033833 73.1186649,55.7370778 C73.3303499,55.4403225 73.7483946,55.3697287 74.0479489,55.5749736 C76.4044428,57.189479 79.8473203,57.0129946 81.8816268,55.1723277 C82.1532227,54.9278641 82.5765928,54.9461662 82.822893,55.2102391 C83.0731873,55.4756194 83.0558797,55.8887236 82.7856152,56.1331872 C81.4183162,57.3698853 79.5903692,58 77.7384579,58" id="Fill-23" fill="#C77A5A"></path>
                    <path d="M63.7384579,45 C62.1821069,45 60.6084483,44.5542135 59.2837526,43.6469529 C58.9841983,43.4417081 58.9096425,43.033833 59.1186649,42.7370778 C59.3303499,42.4403225 59.7483946,42.3697287 60.0479489,42.5749736 C62.4044428,44.189479 65.8473203,44.0129946 67.8816268,42.1723277 C68.1532227,41.9278641 68.5765928,41.9461662 68.822893,42.2102391 C69.0731873,42.4756194 69.0558797,42.8887236 68.7856152,43.1331872 C67.4183162,44.3698853 65.5903692,45 63.7384579,45" id="Fill-25" fill="#541900"></path>
                    <path d="M89.7384579,45 C88.1821069,45 86.6084483,44.5542135 85.2837526,43.6469529 C84.9841983,43.4417081 84.9096425,43.033833 85.1186649,42.7370778 C85.3303499,42.4403225 85.7483946,42.3697287 86.0479489,42.5749736 C88.4044428,44.189479 91.8473203,44.0129946 93.8816268,42.1723277 C94.1532227,41.9278641 94.5765928,41.9461662 94.822893,42.2102391 C95.0731873,42.4756194 95.0558797,42.8887236 94.7856152,43.1331872 C93.4183162,44.3698853 91.5903692,45 89.7384579,45" id="Fill-27" fill="#541900"></path>
                    <path d="M90,74.3901601 C81.8560606,76.4655134 73.1954657,76.5178448 65,74.6421771 C66.8368427,69.6569223 71.9852941,66.0543184 77.3523841,66.0006098 C82.7180816,65.9469013 87.9403409,69.4462196 90,74.3901601" id="Fill-29" fill="#C76E5A"></path>
                    <path d="M69,72.9940505 C71.5603856,72.6013847 74.2529913,72.5371303 76.8602049,72.5335606 C79.6079022,72.5299909 82.3542223,72.7037158 85,73 C82.9257984,71.0937858 79.9122837,69.9800426 76.8863734,70.0002709 C73.8563312,70.021689 70.8648532,71.1782684 69,72.9940505" id="Fill-31" fill="#FFFFFF"></path>
                    <path d="M60,67.7581407 C71.3342574,67.8379028 82.6685148,67.9189514 94,68 C90.2450161,62.697106 83.5736475,60.8895936 77.8656284,62.6559385 C72.383546,60.9204693 63.6302336,63.4046731 60,67.7581407" id="Fill-33" fill="#EBEBEB"></path>
                </g>
            </g>
        </g>
    </g>
</svg>