<?xml version="1.0" encoding="UTF-8"?>
<svg width="157px" height="157px" viewBox="0 0 157 157" version="1.1" xmlns="http://www.w3.org/2000/svg" xmlns:xlink="http://www.w3.org/1999/xlink">
    <title>Group 37</title>
    <defs>
        <circle id="path-1" cx="78.5" cy="78.5" r="78.5"></circle>
        <polygon id="path-3" points="0 0 150 0 150 42 0 42"></polygon>
        <polygon id="path-5" points="0 0 63 0 63 89 0 89"></polygon>
    </defs>
    <g id="UI-Designs---v6" stroke="none" stroke-width="1" fill="none" fill-rule="evenodd">
        <g id="Group-37">
            <mask id="mask-2" fill="white">
                <use xlink:href="#path-1"></use>
            </mask>
            <use id="Mask" fill="#DB8F70" xlink:href="#path-1"></use>
            <g mask="url(#mask-2)">
                <g transform="translate(3.284307, 13.000000)">
                    <g id="Group-3" stroke-width="1" fill="none" transform="translate(-0.284307, 105.000000)">
                        <mask id="mask-4" fill="white">
                            <use xlink:href="#path-3"></use>
                        </mask>
                        <g id="Clip-2"></g>
                        <path d="M53.3680902,0 C40.8062096,3.9990794 28.2429564,7.9995397 15.6810757,12 C5.13277454,15.3597238 -1.91132198,27.3334868 0.460501633,37.9456847 C50.3538977,39.2271577 100.247294,40.5100115 148.389274,42 C152.41506,35.1079402 148.308291,26.3295742 142.569521,20.8004603 C136.829379,15.2699655 128.456622,13.9567319 121.087223,10.9643268 C112.846234,7.62117376 106.727259,5.56501726 100.068858,1.00115075 C84.5133735,3.48124281 68.5145448,3.11116226 53.3680902,0" id="Fill-1" fill="#AFC4C4" mask="url(#mask-4)"></path>
                    </g>
                    <path d="M91.4793592,134.970662 C82.841024,141.762164 69.5648384,141.652844 60.9807471,134.779352 C52.4088606,127.905861 49.2911945,114.965112 53.7242743,104.866682 C55.7041753,100.370899 57.0887499,95.6291462 57.8752859,90.7780735 C58.7418316,85.448726 58.8923583,79.9963936 58.2943197,74.6397162 C58.1465052,73.3278768 57.9552956,72.0433674 57.7247592,70.7451931 C69.334302,66.755015 82.1887415,65.9077854 94.3936108,68.4221442 C93.9596599,70.3625732 93.6355528,72.3439973 93.4185773,74.3527513 C93.1595629,76.7577902 93.0659922,79.217489 93.105319,81.6908528 C93.2558457,89.671209 95.0458932,97.8018801 98.5161444,105.139982 C103.236717,115.115427 100.116338,128.179161 91.4793592,134.970662" id="Fill-4" fill="#EFAC8E"></path>
                    <path d="M95.7156935,75 C95.5640244,77.64512 94.7918909,80.1675282 93.5371739,82.4854168 C91.1104685,87.0134804 86.849946,90.7084676 81.81729,92.8341078 C74.2062595,96.0655173 64.9958096,95.6564781 57.7294816,91.7719694 C57.7294816,91.7024328 57.7156935,91.620625 57.7156935,91.5538152 C58.5981318,86.2349425 58.7498009,80.7947216 58.1431246,75.4499431 C70.0284656,76.2693849 81.9827472,76.172579 93.8543002,75.1636157 C94.4747646,75.1090771 95.0952291,75.0545386 95.7156935,75" id="Fill-6" fill="#C99177"></path>
                    <g id="Group-10" stroke-width="1" fill="none" transform="translate(45.715693, -0.000000)">
                        <mask id="mask-6" fill="white">
                            <use xlink:href="#path-5"></use>
                        </mask>
                        <g id="Clip-9"></g>
                        <path d="M0,44.4997262 C0,19.9232518 14.102413,-0.000547695678 31.5,-0.000547695678 C48.897587,-0.000547695678 63,19.9232518 63,44.4997262 C63,69.0762005 48.897587,89 31.5,89 C14.102413,89 0,69.0762005 0,44.4997262" id="Fill-8" fill="#EFAC8E" mask="url(#mask-6)"></path>
                    </g>
                    <path d="M51.7153181,21.2232259 L51.4909952,33.3568548 C51.42527,36.8969372 48.0718561,39.6929169 44.5612733,38.8481087 C41.2735847,38.0564506 41.7208018,33.9429056 41.7536644,30.6461951 C41.7893846,27.4166217 41.7536644,25.471045 43.3453572,22.8289211 C44.4183925,21.0441937 46.5887528,20.1895945 48.4790666,19.2412833 C49.9707428,18.4915858 51.7453231,19.5825634 51.7153181,21.2232259" id="Fill-11" fill="#EBEBEB"></path>
                    <path d="M51.3150011,46.0727329 C50.0755714,40.8868567 46.3419634,37.3207052 42.9732212,38.109201 C39.6058716,38.8976968 37.8790257,43.7403293 39.1156702,48.927584 C40.3564926,54.1134603 44.0914932,57.6782333 47.4574501,56.8911159 C50.8261923,56.1012416 52.5530382,51.2586092 51.3150011,46.0727329" id="Fill-13" fill="#EFAC8E"></path>
                    <path d="M103.716069,21.2232259 L103.940379,33.3568548 C104.0061,36.8969372 107.359317,39.6929169 110.869693,38.8481087 C114.157188,38.0564506 113.711426,33.9429056 113.677137,30.6461951 C113.641418,27.4166217 113.677137,25.471045 112.086966,22.8289211 C111.012565,21.0441937 108.842333,20.1895945 106.95213,19.2412833 C105.460542,18.4915858 103.686066,19.5825634 103.716069,21.2232259" id="Fill-15" fill="#EBEBEB"></path>
                    <path d="M102.116229,46.0727329 C103.357051,40.8868567 107.089267,37.3207052 110.458009,38.109201 C113.826751,38.8976968 115.552204,43.7403293 114.31556,48.927584 C113.07613,54.1134603 109.341129,57.6782333 105.97378,56.8911159 C102.60643,56.1012416 100.878192,51.2586092 102.116229,46.0727329" id="Fill-17" fill="#EFAC8E"></path>
                    <path d="M61.7156935,43 C61.7156935,41.3426667 62.8328364,40 64.2156935,40 C65.5956935,40 66.7156935,41.3426667 66.7156935,43 C66.7156935,44.6573333 65.5956935,46 64.2156935,46 C62.8328364,46 61.7156935,44.6573333 61.7156935,43" id="Fill-19" fill="#541900"></path>
                    <path d="M87.7156935,43 C87.7156935,41.3426667 88.8328364,40 90.2156935,40 C91.5956935,40 92.7156935,41.3426667 92.7156935,43 C92.7156935,44.6573333 91.5956935,46 90.2156935,46 C88.8328364,46 87.7156935,44.6573333 87.7156935,43" id="Fill-21" fill="#541900"></path>
                    <path d="M77.4561716,58 C75.8971228,58 74.3247601,57.5543998 73.0000346,56.6475185 C72.7004735,56.4423595 72.6245847,56.0333481 72.8349432,55.7393304 C73.046633,55.4400857 73.4660184,55.3708282 73.7642481,55.577294 C76.120795,57.1885111 79.5624186,57.0121005 81.5981023,55.1722029 C81.8670416,54.9291483 82.2944153,54.9448292 82.5380583,55.2100985 C82.7896896,55.4753678 82.7710502,55.8896061 82.5007796,56.1326608 C81.1361126,57.3714555 79.3067932,58 77.4561716,58" id="Fill-23" fill="#C77A5A"></path>
                    <path d="M89.7156935,73.5015049 C85.5713085,73.9817495 81.4352791,73.9702121 77.2143009,73.9976135 C72.9947153,74.0235726 68.8113374,73.8317632 64.7156935,73.7135048 C66.5218989,69.8787591 71.6578169,67.1083392 77.0764332,67.0030603 C82.4922644,66.8948971 87.6323602,69.665317 89.7156935,73.5015049" id="Fill-25" fill="#C76E5A"></path>
                    <path d="M68.7156935,38 L58.7156935,38 L58.7156935,43 L62.3630194,41.5057622 C63.2255531,41.1534835 64.2044153,41.1547931 65.066949,41.5070718 L68.6986698,43 L68.7156935,38 Z" id="Fill-27" fill="#EFAC8E"></path>
                    <path d="M94.7156935,38 L84.7156935,38 L84.7156935,43 L88.364438,41.5057622 C89.2255531,41.1534835 90.2044153,41.1547931 91.066949,41.5070718 L94.6986698,43 L94.7156935,38 Z" id="Fill-29" fill="#EFAC8E"></path>
                    <path d="M95.3930971,35.3812803 C95.143583,35.1830581 94.8563047,35.0561388 94.5568878,34.9720013 C90.8694743,33.9238476 84.3794108,32.8457466 83.1776971,33.0182998 C82.4858013,33.11955 81.8815726,34.0450626 81.7440027,34.7709269 C81.6037353,35.4967911 81.9975629,36.2968105 82.6409046,36.5920048 C85.3424003,37.8326765 88.6103604,37.1039601 91.4642619,37.8697541 C94.1954295,38.6027486 96.241445,39.1517815 98.3859173,40.9500425 C98.5518105,41.0897963 98.7824424,40.9129649 98.6974728,40.7076124 C97.8464274,38.588488 96.8308377,36.5363885 95.3930971,35.3812803" id="Fill-31" fill="#B8B8B8"></path>
                    <path d="M59.0409067,35.3812803 C59.2877174,35.1830581 59.5749888,35.0561388 59.8743984,34.9720013 C63.5630712,33.9238476 70.0529774,32.8457466 71.2533133,33.0182998 C71.9451923,33.11955 72.5494064,34.0450626 72.686973,34.7709269 C72.8285856,35.4967911 72.4334189,36.2968105 71.7900928,36.5920048 C69.0900113,37.8326765 65.8207817,37.1039601 62.9669493,37.8697541 C60.2358479,38.6027486 58.189882,39.1517815 56.0454617,40.9500425 C55.8795725,41.0897963 55.6489462,40.9129649 55.7339138,40.7076124 C56.5849385,38.588488 57.6005036,36.5363885 59.0409067,35.3812803" id="Fill-33" fill="#B8B8B8"></path>
                    <path d="M59.7156935,67.7581407 C71.0499509,67.8379028 82.3842083,67.9189514 93.7156935,68 C89.9607096,62.697106 83.289341,60.8895936 77.5813219,62.6559385 C72.0992395,60.9217558 63.3459271,63.4046731 59.7156935,67.7581407" id="Fill-35" fill="#EBEBEB"></path>
                </g>
            </g>
        </g>
    </g>
</svg>