<?xml version="1.0" encoding="UTF-8"?>
<svg width="157px" height="157px" viewBox="0 0 157 157" version="1.1" xmlns="http://www.w3.org/2000/svg" xmlns:xlink="http://www.w3.org/1999/xlink">
    <title>Group 33</title>
    <defs>
        <circle id="path-1" cx="78.5" cy="78.5" r="78.5"></circle>
        <polygon id="path-3" points="0 0 150 0 150 42 0 42"></polygon>
        <polygon id="path-5" points="0 0 63 0 63 89 0 89"></polygon>
    </defs>
    <g id="UI-Designs---v6" stroke="none" stroke-width="1" fill="none" fill-rule="evenodd">
        <g id="Group-33">
            <mask id="mask-2" fill="white">
                <use xlink:href="#path-1"></use>
            </mask>
            <use id="Mask" fill="#CDEBE5" xlink:href="#path-1"></use>
            <g mask="url(#mask-2)">
                <g transform="translate(3.683921, 13.000000)">
                    <g id="Group-3" stroke-width="1" fill="none" transform="translate(-0.683921, 105.000000)">
                        <mask id="mask-4" fill="white">
                            <use xlink:href="#path-3"></use>
                        </mask>
                        <g id="Clip-2"></g>
                        <path d="M53.3675412,0 C40.8070331,3.9990794 28.2424073,7.9995397 15.6818993,12 C5.13222551,15.3597238 -1.91049843,27.3334868 0.4599526,37.9456847 C50.3547212,39.2271577 100.246745,40.5100115 148.388725,42 C152.414511,35.1065593 148.309115,26.3295742 142.568972,20.8004603 C136.830202,15.2685846 128.456073,13.9567319 121.088047,10.9643268 C112.845685,7.62117376 106.72671,5.56501726 100.068309,1.00115075 C84.5128245,3.48124281 68.5139958,3.11116226 53.3675412,0" id="Fill-1" fill="#AFC4C4" mask="url(#mask-4)"></path>
                    </g>
                    <path d="M92.0790314,134.970816 C83.4406952,141.762333 70.1645082,141.653013 61.5804159,134.778139 C53.0098846,127.905999 49.8908621,114.963854 54.3252984,104.866767 C56.3051997,100.370974 57.6884183,95.629211 58.4749544,90.7781273 C59.3428563,85.4487678 59.492027,79.9964231 58.8953444,74.6397335 C58.7461738,73.3278912 58.5563202,72.0420124 58.3257838,70.7452015 C69.9339718,66.7550144 82.7897688,65.9077829 94.9946394,68.4221474 C94.5606884,70.3625809 94.2352252,72.3440094 94.0182497,74.352768 C93.7605913,76.7564458 93.6656646,79.2161502 93.7063475,81.6908861 C93.8555181,89.6712603 95.6455658,97.8019499 99.1171734,105.140068 C103.83639,115.115536 100.717368,128.177933 92.0790314,134.970816" id="Fill-4" fill="#EFAC8E"></path>
                    <path d="M96.3160786,75 C96.1657883,77.6451362 95.392276,80.1675599 94.1389378,82.4854628 C91.7108537,87.0135543 87.4503312,90.7085641 82.419054,92.8342174 C74.8066447,96.0656467 65.5975735,95.656605 58.3298667,91.770709 C58.3298667,91.7025354 58.3160786,91.6207271 58.3160786,91.5525535 C59.1985169,86.2350116 59.350186,80.7947572 58.7435097,75.4499459 C70.6288508,76.2680292 82.5831323,76.1725862 94.4546853,75.1636167 C95.0765286,75.1090778 95.696993,75.0545389 96.3160786,75" id="Fill-6" fill="#C99177"></path>
                    <g id="Group-10" stroke-width="1" fill="none" transform="translate(45.316079, 0.000000)">
                        <mask id="mask-6" fill="white">
                            <use xlink:href="#path-5"></use>
                        </mask>
                        <g id="Clip-9"></g>
                        <path d="M0,44.4995208 C0,19.922933 14.1037826,-0.00095847186 31.5,-0.00095847186 C48.897587,-0.00095847186 63,19.922933 63,44.4995208 C63,69.0761085 48.897587,89 31.5,89 C14.1037826,89 0,69.0761085 0,44.4995208" id="Fill-8" fill="#EFAC8E" mask="url(#mask-6)"></path>
                    </g>
                    <path d="M52.3157033,21.2231206 L52.0899648,33.3561749 C52.0242435,36.8960897 48.6724556,39.691937 45.1620793,38.8485674 C41.8745841,38.0555481 42.3203462,33.9421979 42.3546356,30.6456436 C42.3889249,27.4162231 42.3546356,25.4707386 43.944806,22.8287398 C45.0177782,21.0440969 47.1894395,20.1895382 49.0796421,19.2412718 C50.5712306,18.4916099 52.3457065,19.5825358 52.3157033,21.2231206" id="Fill-11" fill="#EBEBEB"></path>
                    <path d="M51.9152135,46.0729347 C50.6771283,40.8857752 46.9419825,37.3196892 43.5731095,38.109549 C40.2056291,38.8980303 38.4787161,43.7405738 39.7168013,48.9263549 C40.9562792,54.1135144 44.6914249,57.6782219 48.0575126,56.8911191 C51.4277784,56.1012593 53.1532987,51.2587157 51.9152135,46.0729347" id="Fill-13" fill="#EFAC8E"></path>
                    <path d="M103.316454,21.2231206 L103.542179,33.3561749 C103.607897,36.8960897 106.959487,39.691937 110.469657,38.8485674 C113.756959,38.0555481 113.312651,33.9421979 113.276935,30.6456436 C113.242648,27.4162231 113.276935,25.4707386 111.688287,22.8287398 C110.61395,21.0440969 108.442416,20.1895382 106.552325,19.2412718 C105.060824,18.4916099 103.286453,19.5825358 103.316454,21.2231206" id="Fill-15" fill="#EBEBEB"></path>
                    <path d="M102.716818,46.0729347 C103.956348,40.8857752 107.690257,37.3196892 111.059271,38.109549 C114.428285,38.8980303 116.152485,43.7405738 114.915741,48.9263549 C113.677604,54.1135144 109.940909,57.6782219 106.573288,56.8911191 C103.205666,56.1012593 101.478681,51.2587157 102.716818,46.0729347" id="Fill-17" fill="#EFAC8E"></path>
                    <path d="M95.0820872,31.4218418 C94.8023897,31.2850255 94.4897867,31.2192484 94.1785547,31.191622 C90.3121486,30.8640521 83.6323151,30.9837664 82.4600536,31.3442249 C81.7841181,31.553396 81.3371506,32.4966395 81.3165846,33.1794056 C81.2973897,33.8608563 81.8266211,34.5212582 82.5176384,34.6830698 C85.4284115,35.3513651 88.5804922,34.1358045 91.566674,34.3502378 C94.4239755,34.5502001 96.5614674,34.7041185 99.0074491,35.9736163 C99.1966562,36.0722819 99.3982029,35.8749507 99.2816623,35.6999836 C98.0778664,33.9187401 96.7150268,32.2269534 95.0820872,31.4218418" id="Fill-19" fill="#B8B8B8"></path>
                    <path d="M58.5497586,31.4218418 C58.8294624,31.2850255 59.1434436,31.2192484 59.4546826,31.191622 C63.3198051,30.8640521 70.0011609,30.9837664 71.1707066,31.3442249 C71.8480286,31.553396 72.2963773,32.4966395 72.3155727,33.1794056 C72.334768,33.8608563 71.8055246,34.5212582 71.1131206,34.6830698 C68.2022816,35.3513651 65.0515006,34.1358045 62.0666224,34.3502378 C59.2078851,34.5502001 57.0703449,34.7041185 54.6256789,35.9736163 C54.4337253,36.0722819 54.2349162,35.8749507 54.3500884,35.6999836 C55.5552827,33.9187401 56.916782,32.2269534 58.5497586,31.4218418" id="Fill-21" fill="#B8B8B8"></path>
                    <path d="M77.0538016,58 C75.4974458,58 73.9251139,57.5542135 72.6004142,56.6469529 C72.300859,56.4430154 72.2249716,56.033833 72.435326,55.738385 C72.6470116,55.4403225 73.0637262,55.3697287 73.3646128,55.5762809 C75.7197824,57.189479 79.1626702,57.0129946 81.1983142,55.1723277 C81.469911,54.9278641 81.8932823,54.9461662 82.1395833,55.2102391 C82.3898783,55.4756194 82.3712393,55.8900309 82.1009739,56.1331872 C80.7350022,57.3711926 78.9070498,58 77.0538016,58" id="Fill-23" fill="#C77A5A"></path>
                    <path d="M63.0538016,42 C61.4974458,42 59.9251139,42.4457865 58.6004142,43.3530471 C58.300859,43.5569846 58.2249716,43.966167 58.435326,44.261615 C58.6470116,44.5596775 59.0637262,44.6302713 59.3646128,44.4237191 C61.7197824,42.810521 65.1626702,42.9870054 67.1983142,44.8276723 C67.469911,45.0721359 67.8932823,45.0538338 68.1395833,44.7897609 C68.3898783,44.5243806 68.3712393,44.1112764 68.1009739,43.8668128 C66.7350022,42.6288074 64.9070498,42 63.0538016,42" id="Fill-25" fill="#541900"></path>
                    <path d="M90.0538016,42 C88.4974458,42 86.9251139,42.4457865 85.6004142,43.3530471 C85.300859,43.5569846 85.2249716,43.966167 85.435326,44.261615 C85.6470116,44.5596775 86.0637262,44.6302713 86.3646128,44.4237191 C88.7197824,42.810521 92.1626702,42.9870054 94.1983142,44.8276723 C94.469911,45.0721359 94.8932823,45.0538338 95.1395833,44.7897609 C95.3898783,44.5243806 95.3712393,44.1112764 95.1009739,43.8668128 C93.7350022,42.6288074 91.9070498,42 90.0538016,42" id="Fill-27" fill="#541900"></path>
                    <path d="M89.3160786,68.110042 C81.2608171,66.663705 72.5106082,66.663705 64.3160786,67.9179809 C66.120992,71.3933706 71.2585888,73.9019225 76.677507,73.9972997 C82.0922471,74.0939835 87.2326292,71.584125 89.3160786,68.110042" id="Fill-29" fill="#C76E5A"></path>
                    <path d="M59.3160786,67.7581407 C70.6489499,67.8379028 81.9832073,67.9189514 93.3160786,68 C89.5610947,62.697106 82.88834,60.8895936 77.1803209,62.6559385 C71.6982385,60.9217558 62.9463122,63.4046731 59.3160786,67.7581407" id="Fill-31" fill="#EBEBEB"></path>
                </g>
            </g>
        </g>
    </g>
</svg>