<?xml version="1.0" encoding="UTF-8"?>
<svg width="157px" height="157px" viewBox="0 0 157 157" version="1.1" xmlns="http://www.w3.org/2000/svg" xmlns:xlink="http://www.w3.org/1999/xlink">
    <title>Group 35</title>
    <defs>
        <circle id="path-1" cx="78.5" cy="78.5" r="78.5"></circle>
        <polygon id="path-3" points="0 0 150 0 150 42 0 42"></polygon>
        <polygon id="path-5" points="0 0 63 0 63 89 0 89"></polygon>
    </defs>
    <g id="UI-Designs---v6" stroke="none" stroke-width="1" fill="none" fill-rule="evenodd">
        <g id="Group-35">
            <mask id="mask-2" fill="white">
                <use xlink:href="#path-1"></use>
            </mask>
            <use id="Mask" fill="#7EBDB2" xlink:href="#path-1"></use>
            <g mask="url(#mask-2)">
                <g transform="translate(3.557173, 13.000000)">
                    <g id="Group-3" stroke-width="1" fill="none" transform="translate(-0.557173, 105.000000)">
                        <mask id="mask-4" fill="white">
                            <use xlink:href="#path-3"></use>
                        </mask>
                        <g id="Clip-2"></g>
                        <path d="M53.3689137,0 C40.8070331,3.9990794 28.2424073,7.9995397 15.6818993,12 C5.13222551,15.3597238 -1.91049843,27.3334868 0.4599526,37.9456847 C50.3547212,39.2271577 100.246745,40.5100115 148.388725,42 C152.414511,35.1065593 148.309115,26.3295742 142.568972,20.8004603 C136.830202,15.2699655 128.456073,13.9567319 121.088047,10.9643268 C112.847058,7.62117376 106.728082,5.56501726 100.068309,1.00115075 C84.5128245,3.48124281 68.5139958,3.11116226 53.3689137,0" id="Fill-1" fill="#AFC4C4" mask="url(#mask-4)"></path>
                    </g>
                    <path d="M92.20578,134.970662 C83.5674438,141.762164 70.2912568,141.652844 61.7071645,134.779352 C53.1366332,127.905861 50.0176107,114.965112 54.452047,104.866682 C56.4319483,100.370899 57.8151669,95.6291462 58.601703,90.7780735 C59.4696049,85.448726 59.6187756,79.9963936 59.022093,74.6397162 C58.8729224,73.3278768 58.6830688,72.0433674 58.4525324,70.7451931 C70.0607204,66.755015 82.9165174,65.9077854 95.121388,68.4221442 C94.687437,70.3625732 94.3619738,72.3439973 94.1449983,74.3527513 C93.8873399,76.7564237 93.7924132,79.217489 93.8330961,81.6908528 C93.9822667,89.671209 95.7723144,97.8018801 99.243922,105.139982 C103.963139,115.115427 100.844116,128.179161 92.20578,134.970662" id="Fill-4" fill="#EFAC8E"></path>
                    <path d="M96.4428272,75 C96.2911636,77.64512 95.5176794,80.1675282 94.2643867,82.4854168 C91.8363906,87.0134804 87.5760227,90.7084676 82.544928,92.8341078 C74.9327949,96.0655173 65.724058,95.6564781 58.4566148,91.7719694 C58.4566148,91.7024328 58.4428272,91.620625 58.4428272,91.5538152 C59.3252335,86.2349425 59.4768971,80.7947216 58.8716215,75.4499431 C70.7551526,76.2693849 82.7090004,76.172579 94.5801227,75.1636157 L96.4428272,75" id="Fill-6" fill="#C99177"></path>
                    <g id="Group-10" stroke-width="1" fill="none" transform="translate(45.442827, 0.000000)">
                        <mask id="mask-6" fill="white">
                            <use xlink:href="#path-5"></use>
                        </mask>
                        <g id="Clip-9"></g>
                        <path d="M0,44.4994523 C0,19.924196 14.1037826,-0.0010953981 31.5,-0.0010953981 C48.897587,-0.0010953981 63,19.924196 63,44.4994523 C63,69.0760779 48.897587,89 31.5,89 C14.1037826,89 0,69.0760779 0,44.4994523" id="Fill-8" fill="#EFAC8E" mask="url(#mask-6)"></path>
                    </g>
                    <path d="M52.4424519,21.2231203 L52.2167134,33.3575717 C52.1509921,36.8960874 48.7992042,39.6919344 45.2888279,38.8485648 C42.0013327,38.0555457 42.4470948,33.9435947 42.4813842,30.6456421 C42.5156735,27.4176207 42.4813842,25.4707378 44.0715546,22.8287393 C45.1445268,21.0440966 47.3161881,20.1909367 49.2063907,19.2412718 C50.6979792,18.49161 52.4724551,19.5825358 52.4424519,21.2231203" id="Fill-11" fill="#EBEBEB"></path>
                    <path d="M52.0419478,46.0729347 C50.803864,40.8857752 47.0687225,37.3196892 43.6998532,38.109549 C40.3323767,38.8980303 38.6054656,43.7405738 39.8435494,48.9263549 C41.0830259,54.1135144 44.8181674,57.6782219 48.185644,56.8911191 C51.5545132,56.1012593 53.2800316,51.2587157 52.0419478,46.0729347" id="Fill-13" fill="#EFAC8E"></path>
                    <path d="M103.443203,21.2231203 L103.668928,33.3575717 C103.734645,36.8960874 107.086236,39.6919344 110.596405,38.8485648 C113.883707,38.0555457 113.4394,33.9435947 113.403684,30.6456421 C113.369397,27.4176207 113.403684,25.4707378 111.815036,22.8287393 C110.740698,21.0440966 108.569165,20.1909367 106.679073,19.2412718 C105.187573,18.49161 103.413201,19.5825358 103.443203,21.2231203" id="Fill-15" fill="#EBEBEB"></path>
                    <path d="M101.843549,46.0729347 C103.083026,40.8857752 106.816775,37.3196892 110.185644,38.109549 C113.554513,38.8980303 115.280032,43.7405738 114.041948,48.9263549 C112.803864,54.1135144 109.06733,57.6782219 105.699853,56.8911191 C102.332377,56.1012593 100.605466,51.2587157 101.843549,46.0729347" id="Fill-17" fill="#EFAC8E"></path>
                    <path d="M59.4428272,45.9992886 C59.4428272,43.7897919 60.7863771,42 62.4428272,42 C64.1006497,42 65.4428272,43.7897919 65.4428272,45.9992886 C65.4428272,48.2073626 64.1006497,50 62.4428272,50 C60.7863771,50 59.4428272,48.2073626 59.4428272,45.9992886" id="Fill-19" fill="#541900"></path>
                    <path d="M85.4428272,45.9992886 C85.4428272,43.7897919 86.7863771,42 88.4428272,42 C90.1006497,42 91.4428272,43.7897919 91.4428272,45.9992886 C91.4428272,48.2073626 90.1006497,50 88.4428272,50 C86.7863771,50 85.4428272,48.2073626 85.4428272,45.9992886" id="Fill-21" fill="#541900"></path>
                    <path d="M57.4035687,33.0902253 C57.6695648,32.9212846 58.1494548,32.6350627 58.440131,32.473103 C60.06353,31.569759 61.8583183,31.0084849 63.6517355,31.0001077 C66.6654443,30.9847494 69.606484,32.6169121 70.2975255,33.0595088 C70.9021868,33.4420687 71.4245812,34.2825836 71.4424057,35.0058173 C71.4602302,35.7304473 70.9104134,36.8460144 70.2399387,36.6002824 C68.1393919,35.8281816 65.7893024,34.8606121 63.5310775,34.620465 C62.7454291,34.5380889 61.9638941,34.4948066 61.1946991,34.552051 C58.3359263,34.7684626 56.1969883,36.6240179 53.7509208,37.9727511 C53.560336,38.0760702 53.3601533,37.8652434 53.4780691,37.6809444 C54.6832784,35.7932765 55.8747765,34.0605871 57.4035687,33.0902253" id="Fill-23" fill="#B8B8B8"></path>
                    <path d="M93.4822092,33.0902253 C93.216212,32.9212846 92.7363201,32.6350627 92.4456427,32.473103 C90.8208657,31.569759 89.0274411,31.0084849 87.2326453,31.0001077 C84.2202952,30.9847494 81.2792433,32.6169121 80.5881989,33.0595088 C79.9835351,33.4420687 79.4611385,34.2825836 79.4433139,35.0058173 C79.4241182,35.7304473 79.9753084,36.8460144 80.6457859,36.6002824 C82.7449703,35.8281816 85.0964407,34.8606121 87.354675,34.620465 C88.1403266,34.5380889 88.9218649,34.4948066 89.691063,34.552051 C92.5484766,34.7684626 94.6887946,36.6240179 97.1348723,37.9727511 C97.3240868,38.0760702 97.5256414,37.8652434 97.4077251,37.6809444 C96.2025108,35.7932765 95.0110077,34.0605871 93.4822092,33.0902253" id="Fill-25" fill="#B8B8B8"></path>
                    <path d="M76.1809897,62 C74.6246087,62 73.0522513,61.5542056 71.7275301,60.6469291 C71.4266386,60.442988 71.3520815,60.0337984 71.5624392,59.7383453 C71.7754597,59.4402775 72.192181,59.3709898 72.4904097,59.5762382 C74.8469489,61.1881575 78.2912239,61.0129773 80.3255696,59.1722779 C80.5971707,58.9291174 81.0192176,58.9448052 81.2668539,59.2101901 C81.5158216,59.475575 81.4985137,59.8886865 81.2282439,60.1331544 C79.8609186,61.3711816 78.0329366,62 76.1809897,62" id="Fill-27" fill="#C77A5A"></path>
                    <path d="M89.4428272,69.020733 C85.0454108,67.8089977 66.8675993,67.6322863 62.4428272,68.7270998 C64.4274777,74.543961 69.9875081,79.9356519 75.7841646,79.9994274 C81.5780856,80.063203 87.2174473,74.7897626 89.4428272,69.020733" id="Fill-29" fill="#C76E5A"></path>
                    <path d="M66.4428272,70.0132526 C69.7876691,70.041083 72.9819793,70.7050371 76.2950576,70.7116634 C79.671663,70.7182897 83.1642745,70.0636124 86.4428272,70 C83.8520249,73.8114413 80.0845894,76.0405249 76.3005817,75.9994419 C72.5151929,75.9543831 68.7726159,73.6418083 66.4428272,70.0132526" id="Fill-31" fill="#FFFFFF"></path>
                    <path d="M59.4428272,67.7581407 C70.7756985,67.8379028 82.1099559,67.9189514 93.4428272,68 C89.6878433,62.697106 83.0150886,60.8895936 77.3070696,62.6559385 C71.8249871,60.9217558 63.0730608,63.4046731 59.4428272,67.7581407" id="Fill-33" fill="#EBEBEB"></path>
                </g>
            </g>
        </g>
    </g>
</svg>