<svg width="40" height="40" xmlns="http://www.w3.org/2000/svg" xmlns:xlink="http://www.w3.org/1999/xlink"><defs><circle id="a" cx="20" cy="20" r="20"/><path id="c" d="M0 0h39.083v10.826H0z"/></defs><g fill="none" fill-rule="evenodd"><g><mask id="b" fill="#fff"><use xlink:href="#a"/></mask><use fill="#CDEBE5" xlink:href="#a"/><g mask="url(#b)"><g transform="rotate(-1.5 1169.08 -7.228)"><mask id="d" fill="#fff"><use xlink:href="#c"/></mask><path d="m13.905 0-9.82 3.093C1.338 3.96-.497 7.045.12 9.781c13 .33 26 .66 38.543 1.045 1.049-1.777-.021-4.04-1.516-5.464-1.496-1.426-3.677-1.765-5.598-2.536-2.147-.862-3.741-1.392-5.476-2.568C22.02.897 17.852.802 13.905 0" fill="#AFC4C4" mask="url(#d)"/></g><path d="M24.788 37.83c-2.217 1.833-5.697 1.896-7.993.158-2.293-1.737-3.199-5.097-2.106-7.766.488-1.189.818-2.437.991-3.71a15.533 15.533 0 0 0-.176-5.234 18.435 18.435 0 0 1 9.593-.86c-.1.511-.172 1.031-.216 1.557a15.59 15.59 0 0 0-.031 1.92c.094 2.084.618 4.197 1.578 6.09 1.305 2.575.577 6.01-1.64 7.844" fill="#EFAC8E"/><path d="M25.507 21.872a4.814 4.814 0 0 1-.515 2.006c-.601 1.22-1.686 2.232-2.983 2.832-1.961.911-4.365.865-6.286-.119 0-.018-.005-.04-.005-.057.193-1.42.195-2.869 0-4.286 3.103.136 6.218.03 9.305-.32l.484-.056" fill="#C99177"/><path d="M12.1 14.514c-.168-6.382 3.392-11.653 7.95-11.772 4.56-.12 8.39 4.958 8.557 11.34.167 6.381-3.392 11.652-7.951 11.771-4.559.12-8.39-4.957-8.557-11.34" fill="#EFAC8E"/><path d="M16.113 13.583c-.012-.456.266-.833.62-.842.355-.01.652.352.664.808.012.456-.266.833-.62.842-.355.01-.652-.352-.664-.808M22.9 13.405c-.012-.456.266-.833.62-.842.355-.01.652.352.664.808.012.456-.266.833-.62.843-.355.009-.652-.353-.664-.809" fill="#541900"/><path d="M24.815 10.251a.69.69 0 0 0-.241-.053c-1.027-.057-2.796.02-3.103.12-.179.059-.291.305-.291.48s.144.341.328.378c.776.151 1.602-.183 2.395-.15.758.033 1.326.058 1.982.367.051.024.103-.029.071-.072-.331-.45-.703-.875-1.141-1.07M15.32 10.5a.69.69 0 0 1 .238-.066c1.021-.11 2.792-.126 3.105-.042.18.05.306.289.315.464.01.175-.126.348-.308.394-.767.192-1.61-.098-2.4-.023-.755.072-1.32.126-1.96.469-.05.027-.104-.023-.075-.068.308-.466.657-.91 1.084-1.128" fill="#B8B8B8"/><path d="M19.324 17.044c.726.558 1.76.49 2.38-.212" stroke="#C77A5A" stroke-linecap="round" stroke-linejoin="round"/><path d="M17.389 20.254c2.106-.033 4.212-.065 6.236-.168-.768 1.536-1.92 2.452-3.1 2.467-1.18.014-2.371-.875-3.136-2.3" fill="#FFF"/><path d="m13.587 8.255.024 3.117c.007.91-.835 1.65-1.742 1.457-.85-.181-.763-1.24-.776-2.087-.013-.83-.035-1.33.355-2.019.264-.465.816-.7 1.295-.955.378-.203.84.065.844.487" fill="#EBEBEB"/><path d="M13.655 14.743c-.35-1.343-1.322-2.248-2.173-2.02-.85.228-1.255 1.502-.905 2.845.35 1.344 1.323 2.248 2.173 2.02.85-.227 1.255-1.501.905-2.845" fill="#EFAC8E"/><path d="m26.977 7.904.14 3.115c.04.908.92 1.604 1.816 1.363.839-.225.697-1.279.665-2.125-.03-.83-.034-1.329-.46-1.997-.288-.45-.851-.656-1.343-.886-.388-.183-.836.11-.818.53" fill="#EBEBEB"/><path d="M26.882 14.397c.28-1.36 1.203-2.314 2.064-2.131.861.183 1.333 1.434 1.053 2.794-.279 1.36-1.203 2.314-2.064 2.131-.86-.183-1.332-1.434-1.053-2.794" fill="#EFAC8E"/><path d="m15.93 20.588 8.805-.164a3.64 3.64 0 0 0-4.217-1.361c-1.432-.44-3.68.302-4.589 1.525" fill="#EBEBEB"/></g></g></g></svg>