<?xml version="1.0" encoding="UTF-8"?>
<svg width="157px" height="157px" viewBox="0 0 157 157" version="1.1" xmlns="http://www.w3.org/2000/svg" xmlns:xlink="http://www.w3.org/1999/xlink">
    <title>Group 32</title>
    <defs>
        <circle id="path-1" cx="78.5" cy="78.5" r="78.5"></circle>
        <polygon id="path-3" points="0 0 150 0 150 42 0 42"></polygon>
    </defs>
    <g id="UI-Designs---v6" stroke="none" stroke-width="1" fill="none" fill-rule="evenodd">
        <g id="Group-32">
            <mask id="mask-2" fill="white">
                <use xlink:href="#path-1"></use>
            </mask>
            <use id="Mask" fill="#CDEBE5" xlink:href="#path-1"></use>
            <g mask="url(#mask-2)">
                <g transform="translate(3.484114, 13.000000)">
                    <g id="Group-3" stroke-width="1" fill="none" transform="translate(-0.484114, 105.000000)">
                        <mask id="mask-4" fill="white">
                            <use xlink:href="#path-3"></use>
                        </mask>
                        <g id="Clip-2"></g>
                        <path d="M53.3676784,0 C40.8071704,3.9990794 28.2425446,8.0009206 15.680664,12 C5.13236276,15.3597238 -1.91036117,27.3348677 0.460089858,37.9456847 C50.3548585,39.2271577 100.246882,40.5113924 148.388862,42 C152.414648,35.1079402 148.30788,26.3295742 142.56911,20.8004603 C136.83034,15.2699655 128.45621,13.9567319 121.088184,10.9643268 C112.845822,7.62117376 106.726847,5.56501726 100.068446,1.00115075 C84.5129618,3.48124281 68.514133,3.11254315 53.3676784,0" id="Fill-1" fill="#AFC4C4" mask="url(#mask-4)"></path>
                    </g>
                    <path d="M92.2792413,134.970662 C83.6408753,141.762164 70.3646425,141.652844 61.7805206,134.779352 C53.2086036,127.905861 50.0909264,114.965112 54.525378,104.866682 C56.5052861,100.370899 57.8885095,95.6291462 58.6750483,90.7780735 C59.5429532,85.448726 59.6921244,79.9977601 59.0954398,74.6397162 C58.9462686,73.3278768 58.7564144,72.0433674 58.5258772,70.7451931 C70.1341053,66.755015 82.9899466,65.9077854 95.1948593,68.4221442 C94.7609069,70.3625732 94.4354425,72.3439973 94.2184663,74.3527513 C93.960807,76.7577902 93.8658799,79.217489 93.906563,81.6908528 C94.0557341,89.671209 95.845788,97.8018801 99.3160515,105.139982 C104.03664,115.115427 100.917607,128.179161 92.2792413,134.970662" id="Fill-4" fill="#EFAC8E"></path>
                    <path d="M96.5158861,75 C96.3655958,77.64512 95.5920834,80.1675282 94.3387453,82.4854168 C91.9106611,87.0134804 87.6501386,90.7084676 82.6188614,92.8341078 C75.0064521,96.0655173 65.797381,95.6564781 58.5296742,91.7719694 C58.5296742,91.7024328 58.5158861,91.620625 58.5158861,91.5538152 C59.3983244,86.2349425 59.5499935,80.7947216 58.9433171,75.4499431 C70.8286582,76.2693849 82.7829398,76.172579 94.6544927,75.1636157 C95.276336,75.1090771 95.8968004,75.0545386 96.5158861,75" id="Fill-6" fill="#C99177"></path>
                    <path d="M45.5158861,44.5 C45.5158861,19.9236769 59.6182991,-9.09494702e-13 77.0158861,-9.09494702e-13 C94.413473,-9.09494702e-13 108.515886,19.9236769 108.515886,44.5 C108.515886,69.0749538 94.413473,89 77.0158861,89 C59.6182991,89 45.5158861,69.0749538 45.5158861,44.5" id="Fill-8" fill="#EFAC8E"></path>
                    <path d="M52.5155107,21.2226205 L52.2897763,33.3574131 C52.2240561,36.8960283 48.8723286,39.6919539 45.3620155,38.8485606 C42.0731507,38.0555192 42.5203334,33.9434525 42.5546222,30.6454072 C42.588911,27.417295 42.5546222,25.4703573 44.1447641,22.8282846 C45.2177169,21.0435917 47.3893392,20.1904078 49.2780791,19.2407162 C50.7710694,18.492432 52.5455134,19.5819898 52.5155107,21.2226205" id="Fill-10" fill="#EBEBEB"></path>
                    <path d="M51.1151733,46.0727329 C49.8770731,40.8868567 46.1418822,37.3207052 42.7729684,38.109201 C39.4054473,38.8976968 37.6785134,43.7403293 38.9166136,48.927584 C40.1561065,54.1134603 43.8912974,57.6782333 47.2574258,56.8911159 C50.6263396,56.1026201 52.3532735,51.2586092 51.1151733,46.0727329" id="Fill-12" fill="#EFAC8E"></path>
                    <path d="M103.516261,21.2226205 L103.741987,33.3574131 C103.807704,36.8960283 107.159295,39.6919539 110.669464,38.8485606 C113.956766,38.0555192 113.512459,33.9434525 113.476743,30.6454072 C113.442456,27.417295 113.476743,25.4703573 111.888095,22.8282846 C110.812328,21.0435917 108.642223,20.1904078 106.752132,19.2407162 C105.260631,18.492432 103.48626,19.5819898 103.516261,21.2226205" id="Fill-14" fill="#EBEBEB"></path>
                    <path d="M101.916626,46.0727329 C103.156155,40.8868567 106.890065,37.3207052 110.259079,38.109201 C113.628093,38.8976968 115.352292,43.7403293 114.115548,48.927584 C112.877411,54.1134603 109.140716,57.6782333 105.773095,56.8911159 C102.405474,56.1026201 100.678488,51.2586092 101.916626,46.0727329" id="Fill-16" fill="#EFAC8E"></path>
                    <path d="M61.5158861,43.9993332 C61.5158861,42.3429651 62.6358861,41 64.0158861,41 C65.3973146,41 66.5158861,42.3429651 66.5158861,43.9993332 C66.5158861,45.6570349 65.3973146,47 64.0158861,47 C62.6358861,47 61.5158861,45.6570349 61.5158861,43.9993332" id="Fill-18" fill="#541900"></path>
                    <path d="M87.5158861,43.9993332 C87.5158861,42.3429651 88.6358861,41 90.0158861,41 C91.3973146,41 92.5158861,42.3429651 92.5158861,43.9993332 C92.5158861,45.6570349 91.3973146,47 90.0158861,47 C88.6358861,47 87.5158861,45.6570349 87.5158861,43.9993332" id="Fill-20" fill="#541900"></path>
                    <path d="M95.2818946,32.4217907 C95.0021972,32.2849909 94.6895941,32.2192218 94.3769911,32.1915988 C90.511956,31.8640686 83.8321225,31.9837684 82.6598611,32.3441831 C81.9825545,32.5546443 81.536958,33.4964579 81.516392,34.1791413 C81.4971971,34.8605093 82.0264286,35.5208311 82.7174458,35.6813078 C85.6282189,36.3495219 88.7789286,35.1354242 91.7664814,35.3485161 C94.6237829,35.5510849 96.7612748,35.7036693 99.2072566,36.9743285 C99.3964637,37.0716667 99.5980104,36.873044 99.4814698,36.6994136 C98.2776738,34.9183861 96.9148342,33.2268046 95.2818946,32.4217907" id="Fill-22" fill="#B8B8B8"></path>
                    <path d="M58.749566,32.4217907 C59.0292698,32.2849909 59.343251,32.2192218 59.65449,32.1915988 C63.5196125,31.8640686 70.2009683,31.9837684 71.3705141,32.3441831 C72.047836,32.5546443 72.4961847,33.4964579 72.5153801,34.1791413 C72.5345755,34.8605093 72.005332,35.5208311 71.312928,35.6813078 C68.402089,36.3495219 65.2513081,35.1354242 62.2664299,35.3485161 C59.4076926,35.5510849 57.2701523,35.7036693 54.8254863,36.9743285 C54.6335327,37.0716667 54.4347237,36.873044 54.5498958,36.6994136 C55.7550901,34.9183861 57.1165894,33.2268046 58.749566,32.4217907" id="Fill-24" fill="#B8B8B8"></path>
                    <path d="M78.2538577,60 C76.6960888,60 75.1250057,59.5541369 73.8002365,58.6480279 C73.5006656,58.4427478 73.4247743,58.0348026 73.6351397,57.7379964 C73.8468364,57.4411901 74.2635729,57.3705842 74.5644753,57.5758643 C76.9224313,59.1893397 80.3654999,59.012825 82.3985879,57.1718417 C82.6701989,56.9286436 83.092261,56.9456413 83.3399063,57.2097597 C83.588883,57.473878 83.5715745,57.8896683 83.301295,58.1328664 C81.9352515,59.3710845 80.1058717,60 78.2538577,60" id="Fill-26" fill="#C77A5A"></path>
                    <path d="M89.5158861,71.1860822 C86.3922787,69.988287 81.2869979,69.0243036 77.068805,69.0007918 C72.8478268,68.97728 68.604567,69.47364 64.5158861,70.9940692 C66.3220915,74.465977 71.4594021,75.8988901 76.8766258,75.9955497 C82.2924569,76.0909031 87.4325527,74.6592962 89.5158861,71.1860822" id="Fill-28" fill="#C76E5A"></path>
                    <path d="M59.5158861,69.7594272 C70.8487574,69.8391893 82.1830148,69.9202379 93.5158861,70 C89.7609022,64.697106 83.0881475,62.8895936 77.3801284,64.6559385 C71.898046,62.9217558 63.1461197,65.4046731 59.5158861,69.7594272" id="Fill-30" fill="#EBEBEB"></path>
                </g>
            </g>
        </g>
    </g>
</svg>