<svg width="27" height="27" fill="none" xmlns="http://www.w3.org/2000/svg"><path d="m26.25 27-.137-2.734c-.182-.912-2.028-2.028-5.537-3.35a2.651 2.651 0 0 1-.342-.137c-2.142-.774-3.258-1.207-3.35-1.299-.273-.182-.41-.957-.41-2.324 0-.547.206-1.082.616-1.606.41-.524.729-1.447.957-2.769.091-.456.228-.82.41-1.094.182-.273.365-.82.547-1.64.137-.41.148-.798.034-1.162-.114-.365-.17-.593-.17-.684.09-.729.181-1.481.273-2.256.09-1.048-.365-2.176-1.368-3.383C16.771 1.354 15.221.75 13.125.75c-2.096 0-3.646.604-4.648 1.812-1.003 1.207-1.459 2.335-1.368 3.383.092.775.183 1.527.274 2.256 0 .091-.057.32-.171.684-.114.364-.103.752.034 1.162.182.82.365 1.367.547 1.64.182.274.319.639.41 1.094.228 1.322.547 2.245.957 2.769.41.524.615 1.06.615 1.606v.41c0 1.003-.09 1.607-.273 1.812-.182.205-.798.49-1.846.854-.774.274-1.435.502-1.982.684-3.51 1.322-5.355 2.438-5.537 3.35C.046 24.904 0 25.816 0 27h26.25Z" fill="#25333A"/></svg>