<svg width="30" height="41" fill="none" xmlns="http://www.w3.org/2000/svg"><path fill-rule="evenodd" clip-rule="evenodd" d="M18.1 24.85c-.967.567-2 .85-3.1.85s-2.133-.283-3.1-.85a6.34 6.34 0 0 1-2.3-2.3 6.03 6.03 0 0 1-.85-3.1V6.95c0-1.1.283-2.133.85-3.1a6.34 6.34 0 0 1 2.3-2.3c.967-.566 2-.85 3.1-.85s2.133.284 3.1.85a6.341 6.341 0 0 1 2.3 2.3c.567.967.85 2 .85 3.1v12.5a6.03 6.03 0 0 1-.85 3.1 6.341 6.341 0 0 1-2.3 2.3Zm-1.05 8.55v6.85h-4.1V33.4a14.24 14.24 0 0 1-6.275-2.425C4.758 29.658 3.25 28.017 2.15 26.05a13.52 13.52 0 0 1-1.7-6.6h3.5c0 2.034.533 3.867 1.6 5.5 1 1.567 2.342 2.8 4.025 3.7C11.258 29.55 13.067 30 15 30c1.933 0 3.742-.45 5.425-1.35 1.683-.9 3.025-2.133 4.025-3.7 1.067-1.633 1.6-3.466 1.6-5.5h3.5a13.52 13.52 0 0 1-1.7 6.6c-1.1 1.967-2.608 3.608-4.525 4.925A14.241 14.241 0 0 1 17.05 33.4Z" fill="#fff"/></svg>