<svg width="42" height="39" fill="none" xmlns="http://www.w3.org/2000/svg"><path fill-rule="evenodd" clip-rule="evenodd" d="M37.7 38.2c1.133 0 2.1-.417 2.9-1.25.8-.833 1.2-1.817 1.2-2.95V9c0-1.133-.4-2.116-1.2-2.95-.8-.833-1.767-1.25-2.9-1.25h-6.65L27.25.7h-12.5l-3.8 4.1H4.3c-1.133 0-2.1.417-2.9 1.25C.6 6.884.2 7.867.2 9v25c0 1.133.4 2.117 1.2 2.95.8.833 1.767 1.25 2.9 1.25h33.4ZM21 31.95c-1.9 0-3.65-.466-5.25-1.4-1.6-.933-2.867-2.2-3.8-3.8-.933-1.6-1.4-3.35-1.4-5.25s.467-3.65 1.4-5.25c.933-1.6 2.2-2.867 3.8-3.8 1.6-.933 3.35-1.4 5.25-1.4s3.65.467 5.25 1.4c1.6.934 2.867 2.2 3.8 3.8.933 1.6 1.4 3.35 1.4 5.25s-.467 3.65-1.4 5.25c-.933 1.6-2.2 2.867-3.8 3.8-1.6.933-3.35 1.4-5.25 1.4Zm3.325-4.7c-1.017.6-2.125.9-3.325.9-1.2 0-2.308-.3-3.325-.9a6.763 6.763 0 0 1-2.425-2.425 6.425 6.425 0 0 1-.9-3.325c0-1.2.3-2.308.9-3.325a6.763 6.763 0 0 1 2.425-2.425c1.017-.6 2.125-.9 3.325-.9 1.2 0 2.308.3 3.325.9a6.764 6.764 0 0 1 2.425 2.425c.6 1.017.9 2.125.9 3.325 0 1.2-.3 2.308-.9 3.325a6.764 6.764 0 0 1-2.425 2.425Z" fill="#fff"/></svg>