<svg width="30" height="31" fill="none" xmlns="http://www.w3.org/2000/svg"><path d="m27.984 30.125-1.547-6.188c0-.328.094-.68.282-1.054 0-.047.023-.094.07-.14l.14-.141c1.548-2.297 2.321-4.829 2.321-7.594 0-3.89-1.43-7.219-4.29-9.985C22.103 2.258 18.657.875 14.626.875c-4.031 0-7.477 1.383-10.336 4.148C1.43 7.79 0 11.117 0 15.008c0 3.89 1.43 7.207 4.29 9.949 2.858 2.742 6.304 4.113 10.335 4.113 2.063 0 3.96-.351 5.695-1.054.047 0 .07-.012.07-.035 0-.024.024-.036.07-.036.376-.093.634-.14.774-.14.375 0 .657.047.844.14l5.906 2.18Z" fill="#25333A"/></svg>