<svg width="37" height="40" xmlns="http://www.w3.org/2000/svg"><path d="M19.286 39.214c7.483 0 14.364-4.394 17.503-11.2.276-.602.15-1.33-.327-1.808a1.609 1.609 0 00-1.808-.326 13.41 13.41 0 01-5.725 1.28c-7.534 0-13.661-6.127-13.661-13.66 0-3.867 1.582-7.433 4.445-10.045.477-.452.653-1.18.376-1.808a1.571 1.571 0 00-1.532-.98A19.205 19.205 0 000 19.93C0 30.55 8.664 39.214 19.286 39.214zm0-3.214C10.42 36 3.214 28.793 3.214 19.929c0-7.283 4.772-13.41 11.451-15.394a16.817 16.817 0 00-2.611 8.965c0 9.316 7.558 16.875 16.875 16.875.929 0 1.858-.075 2.762-.226C28.677 33.79 24.132 36 19.286 36z" fill="#FFF" fill-rule="nonzero"/></svg>