<svg width="23" height="27" fill="none" xmlns="http://www.w3.org/2000/svg"><path d="M0 23.063c0 2.109 1.477 3.093 4.43 2.953.843-.047 1.523-.223 2.039-.528.515-.304.867-.785 1.054-1.441.188-.656.305-1.207.352-1.652.047-.446.07-1.067.07-1.864V8.86l13.43-2.25v11.25c-.188 0-.41.012-.668.035a29.095 29.095 0 0 1-2.355.106c-2.438.094-3.657 1.055-3.657 2.883 0 2.062 1.453 3.023 4.36 2.883 1.265-.047 2.18-.47 2.742-1.266.469-.703.703-2.203.703-4.5V.984L6.75 3.445V20.11c-.984 0-2.016.024-3.094.07C1.22 20.274 0 21.235 0 23.064Z" fill="#25333A"/></svg>